<?xml version="1.0" encoding="utf-8"?>
<!-- Generator: Adobe Illustrator 19.2.1, SVG Export Plug-In . SVG Version: 6.00 Build 0)  -->
<svg version="1.1" id="Layer_1" xmlns="http://www.w3.org/2000/svg" xmlns:xlink="http://www.w3.org/1999/xlink" x="0px" y="0px"
	 width="380.3px" height="66.7px" viewBox="0 0 380.3 66.7" style="enable-background:new 0 0 380.3 66.7;" xml:space="preserve">
<style type="text/css">
	.st0{fill:#58595B;}
	.st1{fill:#94A545;}
</style>
<g>
	<g>
		<g>
			<g>
				<path class="st0" d="M60.8,48h-0.1c0,0,0-0.1,0-0.1c-0.1-0.1-0.6-0.2-0.8-0.3c-0.1-0.2-0.1-0.1-0.2-0.2
					c-0.2-0.1-0.2-0.2-0.4-0.4c-0.2-0.2-0.7-0.2-1-0.2c-0.1,0-0.2,0-0.4,0c-0.3-0.1-0.6,0-0.9,0c-0.3,0-0.6-0.1-0.8-0.1
					c-0.4,0-0.7,0.4-0.7,0.8c0,0.3,0.1,0.6,0.1,1c0,0.2,0,0.3,0,0.5c0,0.2,0.1,0.4,0.1,0.7c0,0.2,0,0.5,0,0.7c0,0.3,0.1,0.5,0.1,0.7
					c0.1,0.8,0,1.6,0.1,2.3c0,0.4,0.1,0.7,0.1,1.1c0,0.4,0,0.8,0.1,1.2c0,0.3,0.2,0.6,0.2,1c0,0.5,0,1,0.1,1.5c0,0.3,0,0.5,0,0.8
					c0,0.1,0,0.2,0,0.3c0,0.1,0.1,0.3,0.3,0.3c0.1,0,0.2-0.1,0.3-0.1c0.5-0.1,1,0,1.4-0.2c0.4-0.1,0.9-0.5,1.3-0.7
					c0.6-0.4,1.2-0.8,1.7-1.4c0.2-0.2,0.4-0.4,0.5-0.6c0.1-0.2,0.2-0.5,0.4-0.7c0.1-0.2,0.3-0.4,0.4-0.6c0.2-0.3,0.1-0.8,0.2-1.1
					c0-0.1,0.1-0.3,0.1-0.4c0-0.1-0.1-0.2-0.1-0.3c0-0.1,0-0.1,0.1-0.2c0.1-0.3,0.1-0.6,0.1-0.9c0-0.4-0.2-0.5-0.3-0.9
					c-0.1-0.1-0.1-0.3-0.1-0.5c-0.1-0.3-0.2-0.5-0.3-0.8c0-0.2,0-0.3-0.1-0.5c-0.1-0.2-0.3-0.4-0.5-0.6c-0.4-0.5-0.3-0.5-0.9-0.8
					L60.8,48z M64.5,55.1c-0.1,0.3-0.4,0.6-0.6,0.8c0,0.1-0.1,0.1-0.2,0.2c0,0.1,0,0.1,0,0.2l-0.1,0.1c0,0,0,0,0,0.1v0l-0.1,0
					c0,0.1,0,0,0,0.1c0,0.1-0.4,0.3-0.5,0.4c-0.2,0.3-0.3,0.7-0.6,0.9c-0.5,0.2-0.9,0.5-1.2,0.9c-0.3,0-0.6,0.3-0.8,0.4
					c-0.3,0.2-0.7,0.4-1.1,0.5c-0.2,0.1-0.4,0.2-0.6,0.3c-0.2,0.1-0.4,0.1-0.5,0.1c-0.2,0.1-0.3,0.2-0.5,0.2c-0.2,0-0.4-0.1-0.6-0.1
					c-0.2,0-0.5,0.1-0.7,0.2c-0.2,0-0.4,0-0.6,0c-0.3,0-1-0.1-1-0.5c0-0.2,0.1-0.3,0.1-0.5c0-0.3-0.5-0.6-0.5-1
					c0-0.1,0.1-0.3,0.1-0.4c0-0.6-0.3-1.3-0.3-1.9c0-0.2,0.1-0.3,0.1-0.5c0-0.4,0-0.7-0.1-1c0-0.4-0.1-0.7-0.1-1.1
					c0-0.3,0-0.6,0-0.9c0-0.4-0.1-0.8-0.1-1.2c0-0.2,0-0.4,0-0.7c0-0.3-0.1-0.6-0.1-0.9c0-0.3,0-0.5,0-0.8c0-0.4-0.2-0.7-0.3-1.1
					c0-0.3,0-0.5,0-0.8c0-0.2-0.1-0.5-0.1-0.7c0-0.2,0.1-0.8,0.4-0.8c0.1-0.1,0.2-0.1,0.3-0.1c0.3,0,0.6,0.1,0.8,0.1
					c0.2,0,0.5,0,0.7,0c0.4,0,0.9,0,1.3,0c0.3,0,0.6,0,0.9,0.1c0.2,0,0.4,0.1,0.6,0.1c0.1,0,0.2,0,0.3,0c0.2,0,0.2,0.1,0.4,0.1
					c0.4,0.1,0.8,0.2,1.2,0.4c0.4,0.2,0.9,0.4,1.3,0.7c0,0,0.1,0,0.2,0.1c0,0,0,0.1,0,0.1c0.2,0.1,0.4,0.1,0.6,0.2
					c0.2,0.1,0.3,0.3,0.4,0.4c0.1,0,0.1,0,0.2,0c0.2,0.1,0.6,0.7,0.7,0.9c0.1,0.1,0.2,0.2,0.2,0.4c0.3,0.4,0.5,1,0.7,1.5
					c0.2,0.6,0.3,0.8,0.3,1.5c0,0.1,0,0.3,0,0.4c0,0.4-0.2,0.8-0.3,1.1c0,0.2,0,0.7-0.1,0.9c0,0-0.1,0.1-0.1,0.1
					C64.6,54.6,64.6,54.9,64.5,55.1"/>
				<path class="st0" d="M71.9,53.6c-0.1-0.1-0.1-0.1-0.2-0.2c-0.2-0.2-0.3-0.6-0.6-0.7c-0.1-0.1-1.3-0.3-1.4-0.3
					c-0.1,0-0.5,0.2-0.6,0.3c-0.1,0.1-0.2,0.1-0.3,0.1c-0.6,0.3-0.7,0.6-0.7,1.3c0,0.5,0.2,0.8,0.5,1.2c0.2,0.2,0.7,0.7,0.9,0.8
					c0.4,0.1,0.9,0.1,1.3,0.1c0.3-0.2,0.7-0.5,0.8-0.8l0.1-0.1c0.1-0.1,0.1-0.2,0.1-0.3c0.1-0.3,0.2-0.3,0.2-0.8
					C72.1,54.1,72,53.9,71.9,53.6 M72.4,56.7c-0.1,0.1-0.2,0.3-0.4,0.4c-0.2,0.1-0.4,0.2-0.6,0.3c-0.2,0.1-0.4,0.2-0.6,0.3
					c-0.2,0-0.4,0-0.5,0c-0.2,0-0.4,0-0.6,0c-0.2,0-0.4-0.1-0.6-0.2c-0.6,0-1.1-0.2-1.5-0.6c-0.1-0.1-0.1-0.1-0.2-0.2
					c-0.1,0-0.1-0.1-0.2-0.1c-0.6-0.5-0.8-1-0.8-1.7c0-0.7,0.4-1.3,0.7-1.9c0-0.1,0-0.1,0.1-0.2c0.1-0.1,0.2-0.1,0.3-0.2
					c0.1-0.2,0.2-0.4,0.4-0.5c0.1-0.1,0.1-0.1,0.2-0.1c0.1-0.1,0.2-0.3,0.3-0.3c0.4-0.2,1.1-0.2,1.5-0.2c0.9,0,2.1,0.3,2.5,1.1
					c0.1,0.1,0.1,0.3,0.3,0.4c0.2,0.1,0.4,0.2,0.5,0.4c0,0,0,0.1,0,0.1c0.2,0.4,0.2,0.8,0.2,1.2C73.5,55.5,73.1,56.1,72.4,56.7"/>
				<path class="st0" d="M79.9,54.1c0-0.2,0.1-0.3,0.1-0.5c0-0.4-0.5-0.7-0.8-1c-0.1-0.1,0-0.1-0.1-0.1c0,0,0-0.1-0.1-0.1
					c0,0-0.4-0.1-0.5-0.1c-0.1,0-0.4-0.2-0.4-0.2c0,0,0,0,0,0.1c-0.2,0-0.3,0-0.5,0.1c-0.1,0-0.1,0.1-0.2,0.1
					c-0.1,0.1-0.2,0.1-0.3,0.1c-0.5,0.3-0.9,0.8-0.9,1.4c0,0.3,0.1,0.7,0.2,1c0,0.1,0,0.2,0,0.3c0,0.4,0.8,1.9,1.3,1.9
					c0.2,0,0.4-0.1,0.6-0.1c0.1,0,0.3,0.1,0.4,0.1c0.2,0,0.4-0.2,0.6-0.3c0.1-0.1,0.5-0.2,0.6-0.3c0.1-0.2,0.2-1,0.2-1.2
					C80.1,54.9,79.9,54.5,79.9,54.1 M82.1,61.4c0,0.4,0,0.8-0.1,1.2c-0.1,0.3-0.3,0.4-0.5,0.7c-0.1,0.2-0.1,0.3-0.2,0.5
					c-0.1,0.3-0.3,0.5-0.4,0.8c-0.2,0.3-0.3,0.7-0.6,0.8c-0.1,0.2-0.2,0.3-0.3,0.5c-0.2,0.1-0.4,0.2-0.6,0.3
					c-0.2,0.1-0.3,0.3-0.5,0.4c-0.2,0.1-0.5,0-0.6,0.1c-0.2,0-0.4,0.1-0.5,0.1c-0.2,0-0.6-0.2-0.8-0.3c-0.3-0.1-0.6,0-0.8-0.1
					c-0.2-0.1-0.4-0.3-0.5-0.4c-0.5-0.3-1.2-0.7-1.2-1.4c0-0.2,0.1-0.3,0.2-0.4c0.1,0,0.2-0.1,0.3-0.1c0.4,0,0.6,0.3,0.6,0.7
					c0.3,0.2,0.6,0.5,0.9,0.7c0.2,0.1,0.4,0.1,0.5,0.2c0.1,0,0.4,0.2,0.5,0.2c0.2,0,0.3,0,0.5-0.1c0.7-0.2,1.4-1.1,1.6-1.7
					c0-0.1,0.1-0.2,0.1-0.4c0.1-0.2,0.3-0.5,0.3-0.7c0-0.1,0-0.2,0-0.3c0-0.3,0.2-0.6,0.2-1c0-0.2,0-0.3,0-0.5c0-0.1,0-0.2,0-0.3
					c0-0.1,0-0.1,0-0.2c0-0.1,0.1-0.3,0.1-0.4c0-0.2,0-0.3,0-0.5c0-0.3,0.1-0.6,0.1-0.9c0-0.2,0-0.4-0.1-0.5c0,0,0-0.1,0-0.1
					c0-0.2,0-0.3-0.2-0.4h-0.1c-0.4,0-0.6,0.4-1,0.5c-0.2,0-0.4,0-0.5,0c-0.2,0-0.4,0-0.6,0c-0.2,0-0.4,0-0.6-0.1
					c-0.1,0-0.1-0.1-0.2-0.2c-0.2-0.1-0.8-0.2-1.1-0.3c-0.4-0.2-0.9-0.8-1-1.1c-0.2-0.5-0.4-1.4-0.4-1.9c0-0.1,0-0.3,0-0.4
					c0-0.2,0.7-1.5,0.8-1.7c0.1-0.2,0.4-0.3,0.5-0.4l0-0.1c0.2-0.1,0.3-0.2,0.5-0.3c0.5-0.3,1.1-0.4,1.7-0.4c0.2,0,0.3-0.1,0.5-0.1
					c0.4,0,0.7,0.3,1.1,0.4c0.1,0,0.2-0.1,0.2-0.3c0-0.2,0-0.3,0-0.5c0-0.5,0-1.5,0.7-1.5c0.1,0,0.2,0,0.4,0
					c0.6,0.2,0.5,1.2,0.7,1.7c0,0.3-0.1,0.5-0.1,0.8c0,0.4,0.1,0.5,0.2,0.9c0,0.2,0,0.3,0,0.5c0,0.4,0.2,0.8,0.2,1.2
					c0,0.2-0.1,0.3-0.1,0.5c0,0.1,0.1,0.2,0.1,0.4c0.1,0.4,0,0.8,0,1.2c0,0.1,0,0.3,0.1,0.4c0,0.2-0.1,0.4-0.1,0.6
					c0,0.2,0.1,0.4,0.1,0.7c0,0.2-0.1,0.4-0.1,0.6c0,0.3,0.1,0.6,0.1,0.8C82.4,60.4,82.2,60.9,82.1,61.4"/>
				<path class="st0" d="M102.2,52.1c-0.1,0.1-0.2,0.1-0.2,0.1c-0.1,0.1-0.2,0.2-0.3,0.3c-0.2,0.1-0.4,0.2-0.5,0.3
					c-0.1,0.1-0.3,0.1-0.4,0.2c-0.2,0.1-0.3,0.3-0.5,0.4c-0.3,0.2-0.9,0.3-0.9,0.7c0,0.1,0.1,0.2,0.1,0.4c0,0.1,0,0.3,0.1,0.4
					c0.1,0.3,0.2,0.5,0.2,0.8c0,0.6-0.4,0.9-0.7,1.3c-0.1,0.1-0.1,0.2-0.2,0.3c-0.2,0.3-0.4,0.5-0.6,0.8c-0.4,0.1-0.7,0.4-1.1,0.6
					c-0.1,0-0.2,0.1-0.3,0.1c-0.1,0-0.2,0.1-0.2,0.2c-0.1,0-0.3,0-0.4,0.1C96,59,96,59,95.8,59c-0.2,0-1.1-0.1-1.3-0.1
					c-0.2-0.1-0.4-0.2-0.6-0.3c-0.3-0.1-0.5,0-0.7-0.2c-0.7-0.5-0.5-0.5-1-1c0,0-0.1-0.1-0.1-0.1c-0.2-0.3-0.5-0.4-0.7-0.6
					c-0.1-0.1-0.1-0.3-0.2-0.5c-0.1-0.1-0.2-0.2-0.3-0.4c-0.1-0.2-0.1-0.4-0.1-0.5c0-0.1-0.1-0.3-0.2-0.4v0c0-0.1,0.1-0.3,0.1-0.4
					c0-0.1-0.1-0.3-0.1-0.4c0-0.3,0.1-0.6,0.2-0.9c0-0.3,0-0.6,0.1-0.8c0-0.1,0.2-0.2,0.2-0.3c0.1-0.1,0.1-0.2,0.2-0.4
					c0.3-0.6,1.2-1.6,1.8-2c0.3-0.1,0.5-0.3,0.8-0.5c0.1-0.1,0.3-0.1,0.4-0.3c-0.2-0.5-0.5-0.8-0.5-1.4c0-0.1,0-0.2,0-0.3
					c0.1-0.2,0.7-0.8,0.8-1c0.2-0.3,0.9-0.7,1.3-0.7c0.2,0,0.9,0.2,1,0.3l0.1,0.1c0.1,0,0,0,0.1,0c0.1,0,0.1,0.1,0.1,0.2
					c0,0,0.1,0,0.2,0.1c0.1,0,0.6,0.3,0.6,0.4c0.1,0.1,0.1,0.2,0.1,0.3c0.1,0.2,0.2,0.4,0.2,0.6c0,0.4-0.2,0.5-0.6,0.5
					c-0.2,0-0.3,0-0.5-0.1c-0.1-0.2,0-0.5-0.1-0.7c-0.1-0.3-0.7-0.4-0.9-0.4c-0.4,0-1.1,0.2-1.2,0.6c0.1,0.6,0.2,0.8,0.6,1.2
					c0.2,0.2,0.6,0.5,0.9,0.6c0.1,0,0.3,0,0.4,0.1c0.1,0.1,0.2,0.3,0.2,0.5c0,0.3-0.3,0.4-0.6,0.4c-0.5,0-0.6-0.4-1.2-0.4
					c-0.4,0-0.7,0.2-1,0.4c-0.2,0.1-0.5,0.2-0.7,0.3c-0.2,0.1-0.4,0.4-0.5,0.6c-0.4,0.6-0.7,1.1-0.7,1.9c0,0.4,0.1,0.7,0.1,1
					c0,0.2-0.1,0.4-0.1,0.5c0,0.1,0.1,0.2,0.1,0.3V55c0,0.3,0.2,0.7,0.4,0.9c0.2,0.3,0.9,1.1,1.3,1.4c0.2,0.2,0.4,0.5,0.7,0.6
					c0.1,0,0.3,0.1,0.4,0.1c0.6,0,1.3-0.2,1.8-0.5c0.3-0.2,0.6-0.6,0.8-0.9c0.1-0.2,0.3-0.3,0.5-0.5c0.1-0.1,0.1-0.2,0.1-0.3
					c0.1-0.2,0.2-0.1,0.2-0.4c0-0.3-0.1-0.6-0.3-0.8C98,54.1,97.9,54,97.5,54h-0.2c-0.8,0-1.5,0.4-2.3,0.5c-0.1,0.1-0.2,0.2-0.4,0.2
					c-0.3,0-0.5-0.3-0.5-0.6c0-0.1,0.2-0.5,0.2-0.6c0.1-0.2,0.6-0.4,0.8-0.5c0.1-0.1,0.2-0.1,0.3-0.2c0.2-0.1,0.4,0,0.5-0.1
					c0.5-0.1,0.5-0.3,1.2-0.3c0.8,0,0.8,0.4,1.3,0.4c0.2,0,1.6-0.5,1.8-0.6c0,0,0-0.1,0.1-0.1h0.1c0.1,0,0.1-0.1,0.2-0.2
					c0.2-0.1,0.4-0.1,0.6-0.3c0.2-0.1,0.8-0.8,0.8-1c0-0.2-0.2-0.2-0.2-0.4h-0.1c-0.1,0-0.1-0.1-0.1-0.1c-0.1-0.1-0.6,0-0.8-0.4
					c0,0,0-0.1,0-0.1l-0.1-0.1c0-0.1,0-0.2,0-0.3c0-0.1,0-0.3,0-0.4c0.1-0.1,0.3-0.2,0.5-0.2c0.2,0,0.3,0.1,0.5,0.1
					c0.1,0.1,1,1,1,1.2c0.1,0.1,0,0.3,0.1,0.5c0,0.1,0.1,0.3,0.1,0.4C102.8,51.4,102.4,52,102.2,52.1"/>
				<path class="st0" d="M147.6,46.4c-0.6,0-0.6-0.4-0.7-0.8c-0.1-0.3-0.6-0.6-0.8-0.8l-0.1-0.1c-0.1,0,0,0-0.1,0h0l-0.1-0.1
					c-0.2-0.1-0.5-0.2-0.7-0.2c-0.6,0-0.4,0.4-0.7,0.5c-0.7,0.3-0.7,0.8-0.8,1.5c-0.1,0.3,0,0.7-0.1,1c0,0.4-0.2,0.5-0.2,1
					c0,0.5,0.1,1.1,0.3,1.6c0.1,0.1,0.3,0.1,0.4,0.1c0.2,0,0.5,0,0.7,0c0.1,0,0.2,0,0.3,0c0.3,0,0.5-0.2,0.8-0.2
					c0.3,0,0.9,0.4,0.9,0.6c0,0.1-0.1,0.2-0.1,0.3c-0.3,0.3-0.8,0.3-1.2,0.3c-0.1,0-0.2-0.1-0.3-0.1c-0.3,0-0.5,0.1-0.8,0.1
					c-0.1,0-0.3,0-0.5,0c-0.4,0-0.4,0.5-0.4,0.8c0,0.5,0.1,0.8,0.1,1.2c0,0.2,0,0.5,0,0.7c0,0.7,0.1,1.4,0.2,2.1
					c0,0.4,0.1,0.8,0.1,1.2c0,0.2,0.1,0.4,0.1,0.6c0,0.2-0.1,0.7-0.3,0.9c-0.2,0.1-0.4,0.1-0.5,0.1c-0.1,0-0.3,0.1-0.5,0.1
					c-0.3,0-0.6-0.6-0.6-0.9c0-0.2,0.1-0.4,0.1-0.6c0-0.5-0.2-1.1-0.2-1.7c0-0.2,0-0.3,0-0.5c0-0.3-0.1-0.6-0.1-1c0-0.3,0-0.5,0-0.8
					c0-0.4-0.2-0.7-0.2-1c0-0.1,0-0.2,0-0.4c0-0.2-0.1-0.4-0.1-0.6c-0.1-0.2,0-0.4-0.2-0.5c-0.1,0-0.1-0.1-0.2-0.1
					c-0.2,0-0.4,0.1-0.7,0.2c-0.1,0-0.3,0-0.4,0c-0.2,0-0.3,0-0.5,0c-0.3,0-0.6-0.1-0.6-0.4c0-0.4,0.4-0.5,0.7-0.5
					c0.4,0,0.8,0.1,1.2,0.1c0.2,0,0.4,0,0.6-0.2c0.1-0.2,0.1-0.5,0.1-0.7c0-0.3,0-0.5,0-0.8c0-0.4,0.6-2.8,0.8-3.2
					c0.1-0.2,0.3-0.3,0.5-0.5c0-0.1,0-0.1,0.1-0.2c0-0.1,0.2-0.2,0.3-0.3c0.5-0.5,0.5-0.7,1.2-0.9c0.2,0,0.4-0.1,0.6-0.1
					c0.3,0,0.3,0.1,0.5,0.2c0.2,0.1,0.3,0.1,0.5,0.2c0.1,0,0.1,0.1,0.2,0.2c0.1,0,0.2,0.1,0.3,0.1c0,0,0.1,0.1,0.1,0.1
					c0.1,0.1,0.2,0.1,0.3,0.2c0.1,0.1,0.2,0.3,0.3,0.5c0.2,0.3,0.5,0.6,0.5,1C147.8,46.1,147.7,46.3,147.6,46.4"/>
				<path class="st0" d="M160.5,53.8c-0.3-0.6-1.3-0.8-1.9-0.8c-0.2,0-0.4,0-0.5,0c-0.3,0.1-0.6,0.4-0.6,0.7
					c-0.2,0.1-0.3,0.3-0.3,0.6c0,0.5,0.4,1.6,1,1.8c0.2,0.1,0.4,0.1,0.6,0.1c0.2,0,0.5,0,0.8,0c0.5-0.3,0.7-0.8,1-1.3
					c0-0.1,0-0.1,0-0.2C160.5,54.4,160.5,54.1,160.5,53.8L160.5,53.8z M161.5,55.4c-0.1,0.3-0.6,0.6-0.8,0.9c0,0.1,0,0.2-0.1,0.3
					c-0.1,0.2-0.6,0.6-0.8,0.6c-0.1,0-0.1,0-0.2,0c-0.2,0-0.4,0.2-0.6,0.2c-0.2,0-0.3-0.1-0.5-0.1c-0.3,0-0.5,0.2-0.8,0.2
					c-0.4,0-0.7-0.3-0.9-0.6c-0.3-0.1-0.6-0.3-0.7-0.5c-0.1-0.1-0.1-0.3-0.2-0.4c-0.1-0.1-0.2-0.2-0.2-0.3c0-0.1,0-0.2,0-0.4
					c0-0.1-0.1-0.2-0.1-0.4c0-0.2,0.1-1.2,0.2-1.4c0.1-0.1,0.2-0.2,0.3-0.3c0.1-0.1,0.1-0.2,0.2-0.4c0.1-0.2,0.3-0.3,0.5-0.4
					c0.1-0.1,0.3-0.4,0.5-0.4c0.2-0.1,0.6-0.1,0.8-0.2c0.3-0.1,0.6-0.2,0.9-0.2c0.2,0,0.4,0,0.6,0.1c0.2-0.1,0.3-0.1,0.5-0.1
					c0.2,0,0.3,0.1,0.5,0.1c0.7,0.4,0.5,0.6,0.8,0.8v0.1c0,0.5,0.3,0.9,0.3,1.4C161.6,54.6,161.5,55.3,161.5,55.4 M153.1,53.5
					c-0.2-0.1-0.2-0.5-0.4-0.6c-0.3-0.3-0.9-0.3-1.2-0.7c-0.2-0.2-0.1-0.6-0.4-0.8c-0.2,0-0.4-0.1-0.5-0.1c-0.8,0-1.6,0.8-1.8,1.4
					c0,0,0,0.1,0,0.1c0,0.4-0.2,0.8-0.2,1.2c0,0.8,0.1,1.4,0.5,2.1c0.1,0.1,0.2,0.3,0.2,0.4c0.1,0.1,0.5,0.2,0.6,0.3
					c0.2,0.1,0.5,0.3,0.8,0.3c0.1,0,0.4,0,0.6,0c0.1,0,0.7-0.4,0.7-0.5c0-0.1,0-0.1,0.1-0.2c0.2-0.3,0.6-0.4,0.7-0.8
					c0.1-0.3,0.2-0.6,0.2-1c0.1-0.2,0.2-0.4,0.2-0.6C153.3,53.9,153.2,53.8,153.1,53.5 M154.2,54.8c0,0.2,0.1,0.4,0,0.5v0.1
					c-0.1,0.2-0.2,0.4-0.3,0.5c-0.1,0.2-0.3,0.2-0.4,0.4c-0.1,0.2-0.1,0.5-0.2,0.8c-0.2,0.4-1,0.8-1.4,1.1c-0.1,0-0.1,0-0.2,0
					c-0.4,0-0.7,0.2-1.1,0.2c-0.1,0-1.7-0.2-1.7-0.2c-0.2-0.1-0.3-0.2-0.4-0.4c-0.1-0.1-0.3-0.2-0.5-0.3c-0.9-0.6-1.3-1.4-1.5-2.4
					c0-0.2-0.1-0.3-0.1-0.5c0-0.1,0.1-0.2,0.1-0.3c0.1-0.3,0.1-0.7,0.3-1c0.1-0.2,0.2-0.3,0.3-0.5c0.1-0.2,0.3-0.5,0.4-0.7
					c0.1-0.2,0.6-0.5,0.8-0.6c0.3-0.3,1-0.8,1.4-0.9c0.1,0,0.2,0,0.3,0c0.2,0,0.4,0,0.5,0c0.7,0,1.5,0.3,2,0.8
					c0.1,0.1,0.1,0.1,0.2,0.2c0.2,0.2,0.5,0.3,0.6,0.5c0.1,0.1,0.8,1.1,0.8,1.3c0,0.2,0,0.3,0,0.5c0,0.1,0.1,0.3,0.1,0.4
					C154.4,54.4,154.2,54.6,154.2,54.8"/>
				<path class="st0" d="M167.6,53c-0.1-0.3-0.3-0.4-0.5-0.6c-0.1-0.1-0.1-0.2-0.1-0.2c-0.1-0.1-0.7-0.3-0.8-0.3c-0.1,0-0.1,0-0.1,0
					c-0.4,0.1-1.1,0.2-1.3,0.5c-0.1,0.1-0.1,0.2-0.1,0.3c-0.1,0.3-0.2,0.7-0.2,1c0,0.5,0.2,0.6,0.4,1c0,0.1,0.1,0.2,0.1,0.3
					c0.1,0.2,0.5,0.7,0.8,0.8c0.2,0.1,0.4,0.1,0.6,0.1c0.8,0,1.2-0.2,1.5-0.9c0.1-0.2,0.2-0.4,0.2-0.6
					C167.9,54.1,167.8,53.3,167.6,53 M170.6,45.8c-0.1,0.6,0,1.2-0.1,1.8c0,0.1-0.1,0.2-0.1,0.4c0,0.1,0,0.2,0,0.3
					c0,0.3-0.1,0.6-0.1,0.9c0,0.7-0.1,1.4-0.2,2.1c0,0.2-0.1,0.4-0.1,0.6c0,0.1,0,0.2,0,0.3c0,0.1-0.1,0.2-0.1,0.3
					c-0.1,0.3,0,0.7-0.1,1.1c0,0.3-0.2,0.7-0.2,1c0,0.3,0,0.6-0.2,0.8c0,0.4,0,0.8-0.1,1.2c0,0.2-0.1,0.3-0.2,0.5
					c-0.1,0.5-0.1,1.3-0.3,1.7c-0.3,0.1-0.6,0.2-0.9,0.2c-0.2-0.2-0.5-0.4-0.5-0.8c0-0.3,0.2-0.7,0.2-1c0-0.1,0-0.2-0.1-0.3
					c-0.1,0-0.1,0-0.2,0c-0.2,0-0.4,0.1-0.6,0.1c-0.3,0-0.7,0-1,0c-0.3,0-0.6,0-0.8,0c-0.1,0-0.3-0.1-0.4-0.2
					c-0.1-0.1-0.3,0-0.4-0.1c-0.1-0.1-0.2-0.2-0.3-0.3c-0.3-0.2-0.7-0.4-0.9-0.7c-0.3-0.4-0.5-1.1-0.5-1.6c0-0.6,0.3-1,0.6-1.5
					c0.1-0.1,0.1-0.3,0.2-0.4c0.2-0.3,0.8-0.7,1.1-0.9c0.1-0.1,0.3-0.1,0.4-0.1c0.1,0,0.2-0.1,0.3-0.2c0.2,0,0.9-0.1,1.1-0.1
					c0.3,0,0.6,0.3,0.9,0.3c0.1,0,0.2,0,0.3,0c0.4,0.1,0.5,0.6,0.9,0.7c0.3-0.3,0.3-0.9,0.4-1.3c0.1-1,0.1-2.1,0.3-3.1
					c0.1-0.4,0.3-0.7,0.3-1.1c0-0.1-0.1-0.2-0.1-0.3c0-0.2,0.1-0.4,0.2-0.6c0.1-0.5,0-1.8,0.7-1.8c0.4,0,0.7,0.7,0.7,1
					C170.8,45.1,170.7,45.5,170.6,45.8"/>
				<path class="st0" d="M181.9,54.8c-0.3-0.3-1.4-0.5-1.8-0.5c-0.4,0-0.9,0.1-0.9,0.6c0,0.3,0.2,0.8,0.5,1c0.3,0.2,0.7,0.2,1,0.2
					c0.2,0,0.4,0.1,0.6,0.1c0.3,0,0.7-0.1,0.9-0.3l0-0.1C182.2,55.4,182.1,55,181.9,54.8 M184.5,52.7c0,0.4-0.2,0.7-0.2,1.1
					c0,0.2,0,0.4,0,0.6c0,0.3-0.1,0.5-0.1,0.8c-0.1,0.1-0.1,0.3-0.2,0.4c0,0.2,0,0.4-0.1,0.5c0,0.1-0.1,0.3-0.1,0.4
					c0,0.2,0,0.4,0,0.6c0,0.3-0.1,0.5-0.2,0.7c0,0.2,0,0.9-0.1,1.1c-0.1,0.3-0.5,0.9-0.9,0.9c-0.4,0-0.9-0.4-0.9-0.8
					c0-0.3,0.1-0.5,0.1-0.7c0-0.1,0-0.2,0-0.2c0.1-0.3,0.2-0.3,0.2-0.7c0-0.1,0-0.2-0.1-0.3c-0.1,0-0.2-0.1-0.3-0.1
					c-0.3,0-0.7,0.2-1,0.2c-0.3,0-0.5,0-0.8,0c-0.2,0-0.3,0-0.5,0c-0.1,0-0.1,0-0.2,0c-0.3-0.1-1.4-1-1.4-1.3c0-0.1,0-0.2,0-0.3
					c0-0.3,0.2-0.6,0.4-0.9c0.1-0.2,0.2-0.4,0.3-0.6c0.1-0.1,0.2-0.1,0.3-0.2c0.1-0.1,0.1-0.2,0.2-0.2c0.4-0.3,1-0.4,1.5-0.4
					c0.1,0,0.3,0,0.5,0c0.3,0.1,0.5,0.2,0.8,0.4c0.1,0,0.4,0.1,0.5,0.1c0,0,0.1,0.1,0.1,0.1c0.1,0,0.2,0,0.3,0.1
					c0.2-0.2,0.1-0.5,0.1-0.8c0-0.4,0.1-0.8,0.1-1.2c0-0.5-0.4-1.7-1-1.8h-0.1c-0.5,0-0.8,0.5-1.4,0.5c-0.4,0.4-0.7,0.7-1.2,0.9
					c-0.1,0-0.2,0.2-0.4,0.2c0,0-0.1,0-0.1-0.1c-0.1-0.1-0.1-0.2-0.1-0.3c0-0.6,0.6-0.8,0.8-1.2c0.1,0,0.2-0.1,0.3-0.2l0.1-0.1
					c0.2-0.1,0.4-0.1,0.5-0.2c0.1,0,0.1-0.1,0.2-0.2c0.3-0.2,0.9-0.3,1.3-0.3c0.2,0,0.8,0,1,0.1c0.1,0,0.1,0.1,0.2,0.1
					c0.4,0.2,0.6,0.3,0.9,0.6c0.5,0.6,0.7,1.6,0.7,2.4C184.5,52.4,184.5,52.5,184.5,52.7"/>
				<path class="st0" d="M190.7,51.4c-0.5,0-0.2-0.9-1.4-0.9c-0.8,0-0.9,0.3-0.9,1c0,0.6,0.2,0.9,0.4,1.4c0.1,0.2,0.1,0.4,0.2,0.6
					c0.1,0.3,0.3,0.5,0.4,0.8c0.1,0.2,0.1,0.5,0.2,0.7c0.1,0.3,0.3,0.6,0.4,0.9c0,0.1,0,0.2,0.1,0.4c0,0.1,0.1,0.2,0.2,0.3
					c0,0.2,0,0.4,0,0.6c0,0.6-0.1,1.1-0.4,1.6c-0.1,0.1-0.2,0.3-0.3,0.4c-0.1,0.1-0.3,0.2-0.4,0.3c-0.2,0.1-0.4,0.3-0.6,0.5
					c-0.1,0-0.2,0-0.2,0c-0.2,0-0.4,0.1-0.6,0.2c-0.3,0-0.6,0-0.9,0c-0.2,0-0.5-0.1-0.7-0.3l-0.1-0.1h-0.1c-0.1-0.1-0.2-0.4-0.3-0.5
					c-0.1-0.1-0.3-0.3-0.4-0.4c0-0.1,0-0.2,0-0.3c0-0.2,0.1-0.5,0.4-0.5c0.2,0,0.3,0.1,0.4,0.2c0.1,0.1,0.1,0.2,0.1,0.3
					c0.2,0.3,0.7,0.9,1.1,0.9c0.2,0,0.5-0.2,0.7-0.3c0.5-0.3,0.4-1,0.5-1.5c0-0.1,0.1-0.3,0.1-0.4l0,0c0-0.1-0.4-1.2-0.5-1.2
					c0,0-0.1,0-0.1-0.1c-0.2-0.4-0.1-1-0.3-1.3c-0.2-0.3-0.3-0.6-0.5-0.9c-0.3-0.5-0.6-0.9-0.6-1.5c0-0.7,0.5-1.5,1-1.9
					c0,0,0.1-0.1,0.1-0.1c0.2-0.1,0.7-0.4,0.9-0.5c0.2,0,0.4-0.1,0.6-0.1c0.7,0,1.6,0.7,1.6,1.4C191,51.1,190.9,51.4,190.7,51.4"/>
				<path class="st0" d="M208,58.1c-0.2,0.3-0.3,0.6-0.8,0.6c-0.4,0-1-0.2-1.2-0.5c-0.1-0.2-0.1-0.3-0.1-0.5c0-0.5,0.1-1,0.1-1.4
					c0-0.3-0.1-0.7-0.1-0.9c0-0.1,0-0.2,0-0.4c0-0.3,0-0.6,0-0.9c-0.1-0.4-0.4-0.7-0.4-1.1c0-0.1,0-0.2,0-0.4c0-0.3-0.1-0.1-0.1-0.5
					c0-0.2-0.2-0.6-0.3-0.8c-0.1-0.2-0.1-0.5-0.4-0.6h-0.1c-0.9,0-1.3,0.6-1.9,1.2c-0.2,0.2-0.3,0.4-0.5,0.7
					c-0.2,0.3-0.3,0.2-0.5,0.7c-0.1,0.2-0.1,0.5-0.2,0.7c-0.1,0.1-0.2,0.2-0.2,0.4c-0.1,0.1-0.1,0.3-0.1,0.4
					c-0.1,0.4-0.1,0.8-0.1,1.3c0,0.2-0.1,0.5-0.1,0.7c0,0.4,0.2,0.8,0.2,1.3c0,0.5-0.4,1.1-1,1.1c-0.3,0-0.6-0.2-0.7-0.5
					c-0.1-0.2,0-0.4,0-0.6c0-0.3-0.2-0.6-0.2-0.7c0-0.1,0.1-0.3,0.1-0.4c0-0.2-0.2-0.4-0.2-0.6c0-0.1,0-0.3,0-0.5
					c0-0.2-0.1-0.5-0.2-0.7c-0.2-0.9-0.3-2.3-0.3-3.2c0-0.4,0-1.2,0.6-1.2c0.4,0,0.6,0.3,0.8,0.5c0.1,0.5,0.1,1.2,0.4,1.7
					c0.7,0,0.8-0.7,1-1.1c0.1-0.2,0.3-0.3,0.4-0.5c0.1-0.2,0.2-0.4,0.3-0.5c0,0,0.9-0.8,0.9-0.8c0.2-0.1,0.4-0.1,0.5-0.2
					c0.2-0.1,0.4-0.4,0.6-0.4c0.1,0,0.1,0.1,0.2,0.1c0.2,0,0.4-0.1,0.6-0.1c0.4,0,0.7,0.4,1.1,0.6c0,0,0.1,0,0.1,0.1
					c0,0,0.1,0.2,0.1,0.3c0.1,0.2,0.3,0.4,0.4,0.6c0.1,0.2,0.1,0.5,0.2,0.8c0.4,1.1,0.7,2.1,0.7,3.3c0,0.2-0.1,0.5-0.1,0.7
					c0,0.6,0.2,1.2,0.2,1.8C208,57.9,208,58,208,58.1"/>
				<path class="st0" d="M213,54.8c-0.3-0.3-1.4-0.5-1.8-0.5c-0.4,0-0.9,0.1-0.9,0.6c0,0.3,0.2,0.8,0.5,1c0.3,0.2,0.7,0.2,1,0.2
					c0.2,0,0.4,0.1,0.6,0.1c0.3,0,0.7-0.1,0.9-0.3l0-0.1C213.4,55.4,213.3,55,213,54.8 M215.7,52.7c0,0.4-0.2,0.7-0.2,1.1
					c0,0.2,0,0.4,0,0.6c0,0.3-0.1,0.5-0.1,0.8c-0.1,0.1-0.1,0.3-0.2,0.4c0,0.2,0,0.4-0.1,0.5c0,0.1-0.1,0.3-0.1,0.4
					c0,0.2,0,0.4,0,0.6c0,0.3-0.1,0.5-0.2,0.7c0,0.2,0,0.9-0.1,1.1c-0.1,0.3-0.5,0.9-0.9,0.9c-0.4,0-0.9-0.4-0.9-0.8
					c0-0.3,0.1-0.5,0.1-0.7c0-0.1,0-0.2,0-0.2c0.1-0.3,0.2-0.3,0.2-0.7c0-0.1,0-0.2-0.1-0.3c-0.1,0-0.2-0.1-0.3-0.1
					c-0.3,0-0.7,0.2-1,0.2c-0.3,0-0.5,0-0.8,0c-0.2,0-0.3,0-0.5,0c-0.1,0-0.1,0-0.2,0c-0.3-0.1-1.4-1-1.4-1.3c0-0.1,0-0.2,0-0.3
					c0-0.3,0.2-0.6,0.3-0.9c0.1-0.2,0.2-0.4,0.4-0.6c0.1-0.1,0.2-0.1,0.3-0.2c0.1-0.1,0.1-0.2,0.2-0.2c0.4-0.3,1-0.4,1.5-0.4
					c0.1,0,0.3,0,0.5,0c0.3,0.1,0.5,0.2,0.8,0.4c0.1,0,0.4,0.1,0.5,0.1c0,0,0.1,0.1,0.1,0.1c0.1,0,0.2,0,0.3,0.1
					c0.2-0.2,0.1-0.5,0.1-0.8c0-0.4,0.1-0.8,0.1-1.2c0-0.5-0.4-1.7-1-1.8h-0.1c-0.5,0-0.8,0.5-1.4,0.5c-0.4,0.4-0.7,0.7-1.2,0.9
					c-0.1,0-0.2,0.2-0.3,0.2c0,0-0.1,0-0.1-0.1c-0.1-0.1-0.1-0.2-0.1-0.3c0-0.6,0.6-0.8,0.8-1.2c0.1,0,0.2-0.1,0.3-0.2l0.1-0.1
					c0.2-0.1,0.4-0.1,0.5-0.2c0.1,0,0.1-0.1,0.2-0.2c0.3-0.2,0.9-0.3,1.3-0.3c0.2,0,0.8,0,1,0.1c0.1,0,0.1,0.1,0.2,0.1
					c0.4,0.2,0.6,0.3,0.9,0.6c0.5,0.6,0.7,1.6,0.7,2.4C215.7,52.4,215.7,52.5,215.7,52.7"/>
				<path class="st0" d="M222.5,50.9c-0.2,0-0.4-0.1-0.6-0.1c-0.7,0-0.8,0.1-1.2,0.6c0,0.4,0.1,0.7,0.1,1.1c0,0.3,0.1,0.6,0.2,1
					c0,0.5,0,1.1,0,1.7c0,0.2,0.1,0.3,0.1,0.5c0,0.2,0,0.3,0,0.5c0,0.2,0,0.3,0.1,0.5c-0.1,0.1-0.1,0.3-0.1,0.4
					c0,0.3,0.1,0.5,0.1,0.7c0,0.2,0.1,1,0.1,1.2c0,0.4-0.6,1.1-1,1.1c-0.3,0-0.6-0.3-0.8-0.5c-0.1-0.1-0.2-0.3-0.2-0.4
					c-0.1-0.2-0.1-1.8-0.1-2.2c0-0.3,0-0.7-0.1-1c0-0.3-0.1-0.5-0.1-0.8c0-0.3,0-0.5,0-0.8c0-0.6-0.2-1.2-0.2-1.7c0-0.1,0-0.2,0-0.4
					c0-0.2-0.1-0.4-0.1-0.6c0-0.2,0-0.4-0.1-0.6c-0.1-0.4-0.3-0.5-0.7-0.5c-0.1,0-0.2-0.1-0.4-0.1c-0.2,0-0.4,0.1-0.6,0.1
					c-0.2,0-0.5-0.1-0.7-0.1c-0.2,0-0.3,0-0.4-0.2c0.1-0.9,2.2-0.1,2.7-0.7c0-0.1,0-0.1,0-0.2c0-0.3-0.1-0.6-0.1-1
					c0-0.2,0.1-0.3,0.1-0.5c0-0.2-0.1-0.3-0.1-0.4c-0.1-0.3,0-0.7-0.1-1.1c0-0.3-0.2-0.6-0.2-0.9c0-0.4,0.2-0.8,0.6-0.8
					c0.1,0,0.3,0,0.4,0.2c0.1,0,0,0,0.1,0h0c0.1,0.1,0.4,0.7,0.4,0.8c0.2,0.7,0.3,1.4,0.4,2.1c0,0.2,0.1,0.3,0.1,0.5
					c0,0.2,0,0.3,0,0.5c0,0.3,0.4,0.8,0.7,0.8c0.2,0,0.4-0.1,0.6-0.2c0.1,0,0.3,0,0.4,0c0.2,0,0.3-0.1,0.5-0.1
					c0.3,0,0.7,0.4,0.7,0.7C223.4,50.7,222.8,50.9,222.5,50.9"/>
				<path class="st0" d="M231.9,58.5c-0.1,0-0.2,0-0.4,0c-0.6,0-0.9-0.2-1-0.8c0-0.1,0-0.3,0-0.4c0-0.1-0.1-0.2-0.1-0.3
					c0-0.2,0-0.4,0-0.7c0-0.3,0-0.9-0.2-1.1c-0.6,0.1-0.5,0.7-0.8,1c-0.2,0.2-0.5,0.2-0.7,0.4c-0.2,0.2-0.2,0.4-0.3,0.6
					c-0.2,0.3-0.6,0.6-0.9,0.9c-0.1,0.1-0.2,0.2-0.3,0.3c-0.1,0.1-0.3,0.1-0.4,0.1c-0.1,0.1-0.2,0.2-0.4,0.2c-0.2,0-0.3-0.1-0.5-0.1
					c-0.2,0-0.4,0-0.6,0c-0.2,0-0.5-0.1-0.6-0.2c0,0,0-0.1-0.1-0.2c-0.1-0.1-0.2-0.1-0.2-0.2c-0.1-0.1,0-0.4-0.1-0.6
					c0-0.1-0.2-0.3-0.2-0.4c0-0.2-0.1-0.5-0.1-0.7c0-0.6,0.2-1,0.2-1.5c0-0.2,0-0.4,0-0.7c0-0.2,0.1-0.4,0.1-0.6c0-0.1,0-0.3,0-0.4
					c0.1-0.4,0.1-0.9,0.2-1.3c0-0.4,0.2-1.3,0.8-1.3c0.8,0,0.8,0.7,0.8,1.2c0,0.4-0.1,0.6-0.1,0.9c0,0.2,0.1,0.4,0.1,0.5
					c0,0.2-0.1,0.3-0.1,0.5c0,0.4,0,0.9-0.1,1.3c0,0.1,0,0.1,0,0.2c0,0.2,0,0.4,0,0.6c0,0.2,0,0.5,0,0.8c0,0.3,0.2,0.8,0.6,0.8
					c0.3,0,0.7-0.4,0.9-0.6c0.3-0.2,0.6-0.4,0.8-0.7c0.1-0.1,0.2-0.4,0.3-0.5c0,0,0.1,0,0.2-0.1c0.3-0.3,0.8-1,1-1.4
					c0.1-0.2,0.3-0.4,0.5-0.6c0-0.1,0-0.2,0-0.3c0.1-0.3,0.3-0.6,0.3-0.9c0-0.2,0-0.4,0-0.5c0-0.3,0.4-0.5,0.7-0.5
					c0.8,0,1.2,1.3,1.2,1.9c0,0.3-0.1,0.6-0.1,1c0,0.7,0.2,1.4,0.2,2c0,0.1,0,0.3,0,0.4c0,0.3,0.2,0.6,0.2,0.9
					C232.4,57.8,232.2,58.3,231.9,58.5"/>
				<path class="st0" d="M238.8,51.5c-0.2,0-0.4-0.1-0.6-0.1c-0.5,0-1.1,0.8-1.3,1.3c-0.2,0.3-0.5,0.7-0.5,1.1
					c0,0.2,0.1,0.3,0.1,0.5c0,0.3-0.2,0.5-0.2,0.9c0,0.4,0.2,0.8,0.2,1.2c0,0.3,0,0.6,0.1,1c0.1,0.4,0.1,0.8,0.2,1.1
					c-0.1,0.2-0.7,0.6-0.9,0.6c-0.2,0-0.5-0.2-0.6-0.2c-0.3-0.7-0.3-1.5-0.5-2.2c0-0.1-0.1-0.2-0.1-0.3c0-0.1,0-0.2,0-0.2
					c0-0.2-0.1-0.2-0.1-0.3c0-0.1,0-0.2,0-0.2c0-0.2-0.1-0.4-0.2-0.6c0-0.2,0-0.4,0-0.6c0-0.2-0.2-0.4-0.2-0.6
					c-0.1-0.3,0-0.6-0.1-0.9c0-0.1-0.1-0.3-0.1-0.4c0-0.1-0.1-0.2-0.2-0.3c0-0.2-0.1-1.1-0.1-1.3c0-0.1,0-0.3,0-0.4
					c0.2-0.1,0.4-0.2,0.6-0.2c0.2,0,0.5,0.2,0.6,0.3c0.5,0.5,0.4,1.4,0.8,1.6c0.4,0,0.6-0.5,0.8-0.7c0.1-0.1,0.2-0.2,0.4-0.3
					c0.6-0.5,0.9-1,1.8-1c0.4,0,0.9,0.4,0.9,0.8C239.6,51.2,239.2,51.5,238.8,51.5"/>
				<path class="st0" d="M244,51.9c-0.1,0-0.3,0-0.4,0c-0.1,0-0.3-0.1-0.5-0.1c-0.3,0-0.8,0.4-1,0.6c-0.1,0.1-0.1,0.2-0.1,0.3
					c0,0.1-0.1,0.2-0.1,0.3c0,0.3,0.4,0.4,0.6,0.4c0.3,0,0.6-0.1,0.9-0.1h0.6c0.2,0,0.5,0,0.6-0.2C244.6,52.7,244.4,52.1,244,51.9
					 M245.3,57.8c-0.1,0.1-0.2,0.2-0.3,0.3c-0.2,0.1-1.1,0.3-1.3,0.3c-0.2,0-0.5-0.1-0.7-0.2c-0.1,0-0.2,0-0.3,0
					c-0.3,0-0.6-0.1-0.9-0.1c-0.2,0-0.6-0.4-0.7-0.5c-0.1-0.1-0.2-0.1-0.3-0.2c-0.2-0.1-0.4-0.4-0.6-0.6c-0.5-0.6-0.6-1-0.6-1.9
					c0-0.3,0-0.7,0.1-1c0.1-0.2,0.6-1.3,0.7-1.4c0,0,0.1-0.1,0.1-0.1c0,0,0-0.1,0-0.1c0.1-0.2,1-0.8,1.2-1c0.3-0.3,0.7-0.5,1.2-0.5
					c0.1,0,1,0.2,1.1,0.2c0.2,0.1,1.1,1,1.2,1.1c0.1,0.1,0,0.3,0.1,0.4c0.1,0.3,0.4,0.6,0.4,0.9c0,0.2-0.1,0.4-0.1,0.6
					c0,0.1-0.4,0.3-0.5,0.3c-0.1,0-0.3-0.1-0.4-0.1c-0.1,0-0.3,0-0.4,0c-0.6,0-1.1-0.1-1.7-0.1c-0.8,0-1.1,0-1.1,0.8
					c0,0.3,0,0.8,0.1,1.1c0.1,0.3,0.5,1.1,0.8,1.2c0.1,0.1,0.2,0,0.3,0.1c0.1,0,0.1,0.1,0.2,0.1c0.1,0,0.3,0,0.4,0
					c0.5,0,1.4-0.3,1.7-0.7l0.1-0.1c0,0,0-0.1,0-0.1c0-0.2,0.7-0.7,0.9-0.7c0.3,0,0.4,0.5,0.4,0.7C246.5,57.3,245.7,57.4,245.3,57.8
					"/>
				<path class="st0" d="M255.6,58.9c-0.3,0-0.5-0.2-0.7-0.3c-0.2-0.3-0.2-0.8-0.2-1.3c0-0.1-0.1-0.2-0.1-0.4c0-0.1,0-0.2,0-0.4
					c0-0.5-0.1-1.1-0.1-1.6c0-0.2,0-0.4,0-0.6c0-0.3-0.1-0.5-0.1-0.8c-0.1-0.6,0-1.2,0-1.8c0-0.4,0-1.1,0.6-1.1
					c0.2,0,0.5,0.1,0.7,0.3c0.1,0.1,0.1,0.4,0.1,0.6c0,0.2,0.1,0.3,0.1,0.5c0.1,0.4,0.1,0.8,0.1,1.2c0,0.2,0.1,0.4,0.1,0.6
					c0.1,0.3,0,0.6,0.1,0.9c0.1,0.6,0.1,1.3,0.2,1.9c0,0,0,0.1,0,0.2c0,0,0,0.1,0,0.1c0,0.3,0.1,0.6,0.1,1
					C256.5,58.3,256,58.9,255.6,58.9 M254.9,48c-0.1,0-0.3,0.1-0.4,0.1c-0.1,0-0.6-0.1-0.6-0.1c0,0,0-0.1-0.1-0.1
					c-0.2-0.1-0.4-0.5-0.4-0.7c0-0.4,0.5-0.6,0.9-0.6c0.4,0,0.9,0.2,1.1,0.5c0.1,0.1,0.2,0.2,0.2,0.4
					C255.8,47.8,255.2,47.9,254.9,48"/>
				<path class="st0" d="M267.4,58.1c-0.2,0.3-0.3,0.6-0.8,0.6c-0.4,0-1-0.2-1.2-0.5c-0.1-0.2-0.1-0.3-0.1-0.5c0-0.5,0.1-1,0.1-1.4
					c0-0.3-0.1-0.7-0.1-0.9c0-0.1,0-0.2,0-0.4c0-0.3,0-0.6,0-0.9c-0.1-0.4-0.4-0.7-0.4-1.1c0-0.1,0-0.2,0-0.4c0-0.3-0.1-0.1-0.1-0.5
					c0-0.2-0.2-0.6-0.3-0.8c-0.1-0.2-0.1-0.5-0.4-0.6h-0.1c-0.9,0-1.3,0.6-1.9,1.2c-0.2,0.2-0.3,0.4-0.5,0.7
					c-0.2,0.3-0.3,0.2-0.5,0.7c-0.1,0.2-0.1,0.5-0.2,0.7c-0.1,0.1-0.2,0.2-0.2,0.4c-0.1,0.1-0.1,0.3-0.1,0.4
					c-0.1,0.4-0.1,0.8-0.1,1.3c0,0.2-0.1,0.5-0.1,0.7c0,0.4,0.2,0.8,0.2,1.3c0,0.5-0.4,1.1-1,1.1c-0.3,0-0.6-0.2-0.7-0.5
					c-0.1-0.2,0-0.4,0-0.6c0-0.3-0.2-0.6-0.2-0.7c0-0.1,0.1-0.3,0.1-0.4c0-0.2-0.2-0.4-0.2-0.6c0-0.1,0-0.3,0-0.5
					c0-0.2-0.1-0.5-0.2-0.7c-0.2-0.9-0.3-2.3-0.3-3.2c0-0.4,0-1.2,0.6-1.2c0.3,0,0.6,0.3,0.8,0.5c0.1,0.5,0.1,1.2,0.4,1.7
					c0.7,0,0.8-0.7,1-1.1c0.1-0.2,0.3-0.3,0.4-0.5c0.1-0.2,0.2-0.4,0.3-0.5c0,0,0.9-0.8,0.9-0.8c0.2-0.1,0.4-0.1,0.5-0.2
					c0.2-0.1,0.4-0.4,0.6-0.4c0.1,0,0.1,0.1,0.2,0.1c0.2,0,0.4-0.1,0.6-0.1c0.5,0,0.7,0.4,1.1,0.6c0,0,0.1,0,0.1,0.1
					c0,0,0.1,0.2,0.1,0.3c0.1,0.2,0.3,0.4,0.4,0.6c0.1,0.2,0.1,0.5,0.2,0.8c0.4,1.1,0.7,2.1,0.7,3.3c0,0.2-0.1,0.5-0.1,0.7
					c0,0.6,0.2,1.2,0.2,1.8C267.4,57.9,267.4,58,267.4,58.1"/>
				<path class="st0" d="M273.8,50.9c-0.2,0-0.4-0.1-0.6-0.1c-0.7,0-0.8,0.1-1.2,0.6c0,0.4,0.1,0.7,0.1,1.1c0,0.3,0.1,0.6,0.2,1
					c0,0.5,0,1.1,0,1.7c0,0.2,0.1,0.3,0.1,0.5c0,0.2,0,0.3,0,0.5c0,0.2,0,0.3,0.1,0.5c-0.1,0.1-0.1,0.3-0.1,0.4
					c0,0.3,0.1,0.5,0.1,0.7c0,0.2,0.1,1,0.1,1.2c0,0.4-0.6,1.1-1,1.1c-0.3,0-0.6-0.3-0.8-0.5c-0.1-0.1-0.2-0.3-0.2-0.4
					c-0.1-0.2-0.1-1.8-0.1-2.2c0-0.3,0-0.7-0.1-1c0-0.3-0.1-0.5-0.1-0.8c0-0.3,0-0.5,0-0.8c0-0.6-0.2-1.2-0.2-1.7c0-0.1,0-0.2,0-0.4
					c0-0.2-0.1-0.4-0.1-0.6c0-0.2,0-0.4-0.1-0.6c-0.1-0.4-0.3-0.5-0.7-0.5c-0.1,0-0.2-0.1-0.4-0.1c-0.2,0-0.4,0.1-0.6,0.1
					c-0.2,0-0.5-0.1-0.7-0.1c-0.2,0-0.3,0-0.4-0.2c0.1-0.9,2.2-0.1,2.7-0.7c0-0.1,0-0.1,0-0.2c0-0.3-0.1-0.6-0.1-1
					c0-0.2,0.1-0.3,0.1-0.5c0-0.2-0.1-0.3-0.1-0.4c-0.1-0.3,0-0.7-0.1-1.1c0-0.3-0.2-0.6-0.2-0.9c0-0.4,0.2-0.8,0.6-0.8
					c0.1,0,0.3,0,0.4,0.2c0.1,0,0,0,0.1,0h0c0.1,0.1,0.4,0.7,0.4,0.8c0.2,0.7,0.3,1.4,0.4,2.1c0,0.2,0.1,0.3,0.1,0.5
					c0,0.2,0,0.3,0,0.5c0,0.3,0.3,0.8,0.7,0.8c0.2,0,0.4-0.1,0.6-0.2c0.1,0,0.3,0,0.4,0c0.2,0,0.3-0.1,0.5-0.1
					c0.3,0,0.7,0.4,0.7,0.7C274.7,50.7,274.1,50.9,273.8,50.9"/>
				<path class="st0" d="M279.1,51.9c-0.1,0-0.3,0-0.4,0c-0.1,0-0.3-0.1-0.5-0.1c-0.3,0-0.8,0.4-1,0.6c-0.1,0.1-0.1,0.2-0.1,0.3
					c0,0.1-0.1,0.2-0.1,0.3c0,0.3,0.4,0.4,0.6,0.4c0.3,0,0.6-0.1,0.9-0.1h0.6c0.2,0,0.5,0,0.6-0.2C279.7,52.7,279.6,52.1,279.1,51.9
					 M280.5,57.8c-0.1,0.1-0.2,0.2-0.3,0.3c-0.2,0.1-1.1,0.3-1.3,0.3c-0.2,0-0.5-0.1-0.7-0.2c-0.1,0-0.2,0-0.3,0
					c-0.3,0-0.6-0.1-0.9-0.1c-0.2,0-0.6-0.4-0.7-0.5c-0.1-0.1-0.2-0.1-0.3-0.2c-0.2-0.1-0.4-0.4-0.6-0.6c-0.5-0.6-0.6-1-0.6-1.9
					c0-0.3,0-0.7,0.1-1c0.1-0.2,0.6-1.3,0.7-1.4c0,0,0.1-0.1,0.1-0.1c0,0,0-0.1,0-0.1c0.1-0.2,1-0.8,1.2-1c0.4-0.3,0.7-0.5,1.2-0.5
					c0.1,0,1,0.2,1.1,0.2c0.2,0.1,1.2,1,1.2,1.1c0.1,0.1,0,0.3,0.1,0.4c0.1,0.3,0.4,0.6,0.4,0.9c0,0.2-0.1,0.4-0.1,0.6
					c0,0.1-0.3,0.3-0.5,0.3c-0.1,0-0.3-0.1-0.4-0.1c-0.1,0-0.3,0-0.4,0c-0.6,0-1.1-0.1-1.7-0.1c-0.8,0-1.1,0-1.1,0.8
					c0,0.3,0,0.8,0.1,1.1c0.1,0.3,0.5,1.1,0.8,1.2c0.1,0.1,0.2,0,0.3,0.1c0.1,0,0.1,0.1,0.2,0.1c0.1,0,0.3,0,0.4,0
					c0.5,0,1.4-0.3,1.7-0.7l0.1-0.1c0,0,0-0.1,0-0.1c0-0.2,0.7-0.7,0.9-0.7c0.3,0,0.4,0.5,0.4,0.7C281.6,57.3,280.9,57.4,280.5,57.8
					"/>
				<path class="st0" d="M292,58.1c-0.2,0.3-0.3,0.6-0.8,0.6c-0.4,0-1-0.2-1.2-0.5c-0.1-0.2-0.1-0.3-0.1-0.5c0-0.5,0.1-1,0.1-1.4
					c0-0.3-0.1-0.7-0.1-0.9c0-0.1,0-0.2,0-0.4c0-0.3,0-0.6,0-0.9c-0.1-0.4-0.4-0.7-0.4-1.1c0-0.1,0-0.2,0-0.4c0-0.3-0.1-0.1-0.1-0.5
					c0-0.2-0.2-0.6-0.3-0.8c-0.1-0.2-0.1-0.5-0.4-0.6h-0.1c-0.9,0-1.3,0.6-1.8,1.2c-0.2,0.2-0.4,0.4-0.5,0.7
					c-0.2,0.3-0.3,0.2-0.5,0.7c-0.1,0.2-0.1,0.5-0.2,0.7c-0.1,0.1-0.2,0.2-0.2,0.4c-0.1,0.1-0.1,0.3-0.1,0.4
					c-0.1,0.4-0.1,0.8-0.1,1.3c0,0.2-0.1,0.5-0.1,0.7c0,0.4,0.2,0.8,0.2,1.3c0,0.5-0.4,1.1-1,1.1c-0.3,0-0.6-0.2-0.7-0.5
					c-0.1-0.2,0-0.4,0-0.6c0-0.3-0.2-0.6-0.2-0.7c0-0.1,0.1-0.3,0.1-0.4c0-0.2-0.2-0.4-0.2-0.6c0-0.1,0-0.3,0-0.5
					c0-0.2-0.1-0.5-0.2-0.7c-0.2-0.9-0.3-2.3-0.3-3.2c0-0.4,0-1.2,0.6-1.2c0.4,0,0.6,0.3,0.8,0.5c0.1,0.5,0.1,1.2,0.4,1.7
					c0.7,0,0.8-0.7,1-1.1c0.1-0.2,0.3-0.3,0.4-0.5c0.1-0.2,0.2-0.4,0.3-0.5c0,0,0.9-0.8,0.9-0.8c0.2-0.1,0.4-0.1,0.5-0.2
					c0.2-0.1,0.4-0.4,0.6-0.4c0.1,0,0.1,0.1,0.2,0.1c0.2,0,0.4-0.1,0.6-0.1c0.5,0,0.7,0.4,1.1,0.6c0,0,0.1,0,0.1,0.1
					c0,0,0.1,0.2,0.1,0.3c0.1,0.2,0.3,0.4,0.4,0.6c0.1,0.2,0.1,0.5,0.2,0.8c0.4,1.1,0.7,2.1,0.7,3.3c0,0.2-0.1,0.5-0.1,0.7
					c0,0.6,0.2,1.2,0.2,1.8C292.1,57.9,292.1,58,292,58.1"/>
				<path class="st0" d="M298.2,53c-0.1-0.3-0.3-0.4-0.5-0.6c-0.1-0.1-0.1-0.2-0.1-0.2c-0.1-0.1-0.7-0.3-0.8-0.3c-0.1,0-0.1,0-0.1,0
					c-0.4,0.1-1.1,0.2-1.3,0.5c-0.1,0.1-0.1,0.2-0.1,0.3c-0.1,0.3-0.2,0.7-0.2,1c0,0.5,0.2,0.6,0.4,1c0,0.1,0.1,0.2,0.1,0.3
					c0.1,0.2,0.5,0.7,0.8,0.8c0.2,0.1,0.4,0.1,0.6,0.1c0.8,0,1.2-0.2,1.5-0.9c0.1-0.2,0.2-0.4,0.2-0.6
					C298.5,54.1,298.3,53.3,298.2,53 M301.2,45.8c-0.1,0.6,0,1.2-0.1,1.8c0,0.1-0.1,0.2-0.1,0.4c0,0.1,0,0.2,0,0.3
					c0,0.3-0.1,0.6-0.1,0.9c0,0.7-0.1,1.4-0.2,2.1c0,0.2-0.1,0.4-0.1,0.6c0,0.1,0,0.2,0,0.3c0,0.1-0.1,0.2-0.1,0.3
					c-0.1,0.3,0,0.7-0.1,1.1c0,0.3-0.2,0.7-0.2,1c0,0.3,0,0.6-0.2,0.8c0,0.4,0,0.8-0.1,1.2c0,0.2-0.1,0.3-0.2,0.5
					c-0.1,0.5-0.1,1.3-0.3,1.7c-0.3,0.1-0.6,0.2-0.9,0.2c-0.2-0.2-0.5-0.4-0.5-0.8c0-0.3,0.2-0.7,0.2-1c0-0.1,0-0.2-0.1-0.3
					c-0.1,0-0.1,0-0.2,0c-0.2,0-0.4,0.1-0.6,0.1c-0.3,0-0.7,0-1,0c-0.3,0-0.6,0-0.8,0c-0.1,0-0.3-0.1-0.4-0.2
					c-0.1-0.1-0.3,0-0.4-0.1c-0.1-0.1-0.2-0.2-0.3-0.3c-0.3-0.2-0.7-0.4-0.9-0.7c-0.3-0.4-0.5-1.1-0.5-1.6c0-0.6,0.3-1,0.6-1.5
					c0.1-0.1,0.1-0.3,0.2-0.4c0.2-0.3,0.8-0.7,1.2-0.9c0.1-0.1,0.3-0.1,0.4-0.1c0.1,0,0.2-0.1,0.3-0.2c0.2,0,0.9-0.1,1.1-0.1
					c0.3,0,0.6,0.3,0.9,0.3c0.1,0,0.2,0,0.3,0c0.4,0.1,0.5,0.6,0.9,0.7c0.3-0.3,0.3-0.9,0.4-1.3c0.1-1,0.1-2.1,0.3-3.1
					c0.1-0.4,0.3-0.7,0.3-1.1c0-0.1-0.1-0.2-0.1-0.3c0-0.2,0.1-0.4,0.2-0.6c0.1-0.5,0-1.8,0.7-1.8c0.4,0,0.7,0.7,0.7,1
					C301.3,45.1,301.2,45.5,301.2,45.8"/>
				<path class="st0" d="M306.4,51.9c-0.1,0-0.3,0-0.4,0c-0.1,0-0.3-0.1-0.5-0.1c-0.3,0-0.8,0.4-1,0.6c-0.1,0.1-0.1,0.2-0.1,0.3
					c0,0.1-0.1,0.2-0.1,0.3c0,0.3,0.4,0.4,0.6,0.4c0.3,0,0.6-0.1,0.9-0.1h0.6c0.2,0,0.5,0,0.6-0.2C307,52.7,306.8,52.1,306.4,51.9
					 M307.8,57.8c-0.1,0.1-0.2,0.2-0.3,0.3c-0.2,0.1-1.1,0.3-1.3,0.3c-0.2,0-0.5-0.1-0.7-0.2c-0.1,0-0.2,0-0.3,0
					c-0.3,0-0.6-0.1-0.9-0.1c-0.2,0-0.6-0.4-0.7-0.5c-0.1-0.1-0.2-0.1-0.3-0.2c-0.2-0.1-0.4-0.4-0.6-0.6c-0.5-0.6-0.6-1-0.6-1.9
					c0-0.3,0-0.7,0.1-1c0.1-0.2,0.6-1.3,0.7-1.4c0,0,0.1-0.1,0.1-0.1c0,0,0-0.1,0-0.1c0.1-0.2,1-0.8,1.2-1c0.4-0.3,0.7-0.5,1.2-0.5
					c0.1,0,1,0.2,1.1,0.2c0.2,0.1,1.1,1,1.2,1.1c0.1,0.1,0,0.3,0.1,0.4c0.1,0.3,0.4,0.6,0.4,0.9c0,0.2-0.1,0.4-0.1,0.6
					c0,0.1-0.4,0.3-0.5,0.3c-0.1,0-0.3-0.1-0.4-0.1c-0.1,0-0.3,0-0.4,0c-0.6,0-1.1-0.1-1.7-0.1c-0.8,0-1.1,0-1.1,0.8
					c0,0.3,0,0.8,0.1,1.1c0.1,0.3,0.5,1.1,0.8,1.2c0.1,0.1,0.2,0,0.3,0.1c0.1,0,0.1,0.1,0.2,0.1c0.1,0,0.3,0,0.4,0
					c0.5,0,1.4-0.3,1.7-0.7l0.1-0.1c0,0,0-0.1,0-0.1c0-0.2,0.7-0.7,0.9-0.7c0.3,0,0.4,0.5,0.4,0.7C308.9,57.3,308.2,57.4,307.8,57.8
					"/>
				<path class="st0" d="M314.7,53c-0.1-0.3-0.3-0.4-0.5-0.6c-0.1-0.1-0.1-0.2-0.1-0.2c-0.1-0.1-0.7-0.3-0.8-0.3c-0.1,0-0.1,0-0.1,0
					c-0.4,0.1-1.1,0.2-1.3,0.5c-0.1,0.1-0.1,0.2-0.1,0.3c-0.1,0.3-0.2,0.7-0.2,1c0,0.5,0.2,0.6,0.4,1c0,0.1,0.1,0.2,0.1,0.3
					c0.1,0.2,0.5,0.7,0.8,0.8c0.2,0.1,0.4,0.1,0.6,0.1c0.8,0,1.2-0.2,1.5-0.9c0.1-0.2,0.2-0.4,0.2-0.6
					C315.1,54.1,314.9,53.3,314.7,53 M317.7,45.8c-0.1,0.6,0,1.2-0.1,1.8c0,0.1-0.1,0.2-0.1,0.4c0,0.1,0,0.2,0,0.3
					c0,0.3-0.1,0.6-0.1,0.9c0,0.7-0.1,1.4-0.2,2.1c0,0.2-0.1,0.4-0.1,0.6c0,0.1,0,0.2,0,0.3c0,0.1-0.1,0.2-0.1,0.3
					c-0.1,0.3,0,0.7-0.1,1.1c0,0.3-0.2,0.7-0.2,1c0,0.3,0,0.6-0.2,0.8c0,0.4,0,0.8-0.1,1.2c0,0.2-0.1,0.3-0.2,0.5
					c-0.1,0.5-0.1,1.3-0.3,1.7c-0.3,0.1-0.6,0.2-0.9,0.2c-0.2-0.2-0.5-0.4-0.5-0.8c0-0.3,0.2-0.7,0.2-1c0-0.1,0-0.2-0.1-0.3
					c-0.1,0-0.1,0-0.2,0c-0.2,0-0.4,0.1-0.6,0.1c-0.3,0-0.7,0-1,0c-0.3,0-0.6,0-0.8,0c-0.1,0-0.3-0.1-0.4-0.2
					c-0.1-0.1-0.3,0-0.4-0.1c-0.1-0.1-0.2-0.2-0.3-0.3c-0.3-0.2-0.7-0.4-0.9-0.7c-0.3-0.4-0.5-1.1-0.5-1.6c0-0.6,0.3-1,0.6-1.5
					c0.1-0.1,0.1-0.3,0.2-0.4c0.2-0.3,0.8-0.7,1.2-0.9c0.1-0.1,0.3-0.1,0.4-0.1c0.1,0,0.2-0.1,0.3-0.2c0.2,0,0.9-0.1,1.1-0.1
					c0.3,0,0.6,0.3,0.9,0.3c0.1,0,0.2,0,0.3,0c0.4,0.1,0.5,0.6,0.9,0.7c0.3-0.3,0.3-0.9,0.4-1.3c0.1-1,0.1-2.1,0.3-3.1
					c0.1-0.4,0.3-0.7,0.3-1.1c0-0.1-0.1-0.2-0.1-0.3c0-0.2,0.1-0.4,0.2-0.6c0.1-0.5,0-1.8,0.7-1.8c0.4,0,0.7,0.7,0.7,1
					C317.9,45.1,317.8,45.5,317.7,45.8"/>
			</g>
		</g>
		<g>
			<path class="st0" d="M125.2,53c0,0.4-0.2,0.7-0.2,1c0,0.2,0,0.4,0,0.6c0,0.3-0.1,0.5-0.1,0.8c-0.1,0.1-0.1,0.2-0.2,0.4
				c0,0.2,0,0.3-0.1,0.5c0,0.1-0.1,0.3-0.1,0.4c0,0.2,0,0.4,0,0.6c0,0.3-0.1,0.5-0.2,0.7c0,0.2,0,0.8-0.1,1
				c-0.1,0.3-0.5,0.9-0.9,0.9c-0.4,0-0.9-0.4-0.9-0.8c0-0.3,0.1-0.5,0.1-0.7c0-0.1,0-0.2,0-0.2c0.1-0.3,0.2-0.3,0.2-0.6
				c0-0.1,0-0.2-0.1-0.3c-0.1,0-0.2-0.1-0.3-0.1c-0.3,0-0.6,0.2-1,0.2c-0.3,0-0.5,0-0.7,0c-0.2,0-0.3,0-0.5,0c-0.1,0-0.1,0-0.2,0
				c-0.3-0.1-1.3-1-1.4-1.2c0-0.1,0-0.2,0-0.3c0-0.3,0.2-0.6,0.3-0.9c0.1-0.2,0.2-0.4,0.3-0.6c0.1-0.1,0.2-0.1,0.3-0.2
				c0.1-0.1,0.1-0.2,0.2-0.2c0.4-0.3,0.9-0.4,1.4-0.4c0.1,0,0.3,0,0.4,0c0.3,0.1,0.5,0.2,0.8,0.3c0.1,0,0.4,0.1,0.4,0.1
				c0,0,0.1,0.1,0.1,0.1c0.1,0,0.2,0,0.3,0.1c0.2-0.2,0.1-0.5,0.1-0.8c0-0.4,0.1-0.8,0.1-1.2c0-0.5-0.4-1.7-0.9-1.8h-0.1
				c-0.5,0-0.7,0.4-1.3,0.4c-0.4,0.3-0.6,0.7-1.1,0.9c-0.1,0-0.2,0.2-0.3,0.2c0,0-0.1,0-0.1-0.1c-0.1-0.1-0.1-0.2-0.1-0.3
				c0-0.5,0.6-0.8,0.8-1.1c0.1,0,0.2-0.1,0.3-0.2l0.1-0.1c0.2-0.1,0.3-0.1,0.5-0.2c0.1,0,0.1-0.1,0.2-0.2c0.3-0.2,0.9-0.3,1.2-0.3
				c0.2,0,0.7,0,1,0.1c0.1,0,0.1,0.1,0.2,0.1c0.4,0.2,0.6,0.3,0.8,0.6c0.5,0.6,0.7,1.5,0.7,2.3C125.2,52.7,125.2,52.9,125.2,53
				 M122.7,55.1c-0.3-0.3-1.3-0.5-1.7-0.5c-0.4,0-0.9,0.1-0.9,0.6c0,0.3,0.2,0.7,0.5,0.9c0.3,0.2,0.6,0.2,1,0.2
				c0.2,0,0.3,0.1,0.5,0.1c0.3,0,0.7-0.1,0.9-0.3l0-0.1C123,55.6,122.9,55.3,122.7,55.1"/>
			<path class="st0" d="M131.6,51.3c-0.2,0-0.4-0.1-0.5-0.1c-0.6,0-0.8,0.1-1.1,0.6c0,0.3,0.1,0.7,0.1,1c0,0.3,0.1,0.6,0.2,0.9
				c0,0.5,0,1.1,0,1.6c0,0.2,0.1,0.3,0.1,0.5c0,0.2,0,0.3,0,0.5c0,0.2,0,0.3,0.1,0.4c-0.1,0.1-0.1,0.3-0.1,0.4
				c0,0.3,0.1,0.5,0.1,0.7c0,0.2,0.1,1,0.1,1.2c0,0.4-0.5,1-0.9,1c-0.3,0-0.5-0.3-0.7-0.5c-0.1-0.1-0.2-0.3-0.2-0.3
				c-0.1-0.2-0.1-1.7-0.1-2.1c0-0.3,0-0.6-0.1-1c0-0.3-0.1-0.4-0.1-0.8c0-0.3,0-0.5,0-0.8c0-0.6-0.2-1.1-0.2-1.6c0-0.1,0-0.2,0-0.3
				c0-0.2-0.1-0.4-0.1-0.6c0-0.2,0-0.4-0.1-0.6c-0.1-0.4-0.3-0.4-0.7-0.5c-0.1,0-0.2-0.1-0.3-0.1c-0.2,0-0.4,0.1-0.6,0.1
				c-0.2,0-0.4-0.1-0.7-0.1c-0.2,0-0.3,0-0.3-0.2c0.1-0.9,2.1-0.1,2.5-0.6c0-0.1,0-0.1,0-0.2c0-0.3-0.1-0.6-0.1-0.9
				c0-0.2,0.1-0.3,0.1-0.5c0-0.2-0.1-0.3-0.1-0.4c-0.1-0.3,0-0.7-0.1-1c0-0.3-0.2-0.6-0.2-0.8c0-0.4,0.2-0.8,0.6-0.8
				c0.1,0,0.3,0,0.3,0.2c0.1,0,0,0,0.1,0h0c0.1,0.1,0.4,0.7,0.4,0.8c0.2,0.7,0.3,1.3,0.4,2c0,0.2,0.1,0.3,0.1,0.5c0,0.2,0,0.3,0,0.5
				c0,0.3,0.3,0.8,0.6,0.8c0.2,0,0.3-0.1,0.5-0.2c0.1,0,0.3,0,0.4,0c0.2,0,0.3-0.1,0.5-0.1c0.3,0,0.7,0.4,0.7,0.7
				C132.4,51.1,131.9,51.3,131.6,51.3"/>
			<path class="st0" d="M110.8,52.2c0-0.6,0.1-0.8,0.3-1.4c0.2-0.5,0.4-1,0.7-1.4c0.1-0.1,0.2-0.2,0.2-0.3c0.1-0.2,0.5-0.7,0.7-0.9
				c0,0,0.1,0,0.2,0c0.1-0.1,0.2-0.3,0.4-0.4c0.2-0.1,0.4-0.1,0.6-0.2c0,0,0-0.1,0-0.1c0,0,0.1,0,0.2-0.1c0.4-0.2,0.8-0.5,1.2-0.6
				c0.4-0.2,0.8-0.2,1.1-0.3c0.1,0,0.2-0.1,0.3-0.1c0.1,0,0.2,0,0.3,0c0.2,0,0.4-0.1,0.6-0.1c0.3,0,0.6-0.1,0.9-0.1
				c0.4,0,0.8,0,1.2,0c0.2,0,0.4,0,0.6,0c0.3,0,0.5-0.1,0.8-0.1c0.1,0,0.2,0,0.3,0.1c0.2,0.1,0.3,0.6,0.3,0.8c0,0.2-0.6,0.5-0.6,0.7
				h-0.9l-0.6-0.1l0,0c-0.1-0.2-0.3-0.3-0.5-0.3c-0.3,0-0.5,0.1-0.8,0.1c-0.3,0-0.6,0-0.8,0c-0.1,0-0.2,0-0.3,0
				c-0.3,0-0.7,0-0.9,0.2c-0.1,0.1-0.2,0.3-0.4,0.3c-0.1,0.1-0.1,0-0.2,0.2c-0.2,0.1-0.7,0.2-0.8,0.3c0,0,0,0.1,0,0.1h0h-0.1
				l-0.1,0.1c-0.6,0.3-0.5,0.3-0.9,0.8c-0.1,0.2-0.4,0.4-0.4,0.6c-0.1,0.1-0.1,0.3-0.1,0.4c-0.1,0.3-0.2,0.5-0.3,0.8
				c-0.1,0.2-0.1,0.3-0.1,0.4c-0.1,0.3-0.3,0.4-0.3,0.8c0,0.3,0,0.6,0.1,0.9c0,0.1,0.1,0.1,0.1,0.2c0,0.1-0.1,0.2-0.1,0.3
				c0,0.1,0.1,0.3,0.1,0.4c0.1,0.3,0.1,0.8,0.2,1.1c0.1,0.2,0.2,0.4,0.3,0.6c0.2,0.2,0.2,0.5,0.4,0.7c0.1,0.2,0.3,0.4,0.5,0.6
				c0.5,0.6,1.1,0.9,1.6,1.4c0.3,0.2,0.8,0.6,1.2,0.7c0.4,0.1,0.9,0,1.4,0.2c0.1,0,0.2,0.1,0.3,0.1c0.2,0,0.3-0.2,0.3-0.3h0.6
				l0.8,0.3c0,0.2,0.1,0.3,0.1,0.5c0,0.3-0.7,0.4-0.9,0.4c-0.2,0-0.4,0-0.6,0c-0.2,0-0.4-0.2-0.7-0.2c-0.2,0-0.4,0.1-0.6,0.1
				c-0.2,0-0.3-0.1-0.5-0.2c-0.2,0-0.3,0-0.5-0.1c-0.2-0.1-0.4-0.2-0.6-0.3c-0.3-0.1-0.7-0.3-1-0.4c-0.2-0.1-0.5-0.4-0.8-0.4
				c-0.3-0.4-0.7-0.6-1.1-0.8c-0.2-0.3-0.3-0.6-0.5-0.9c-0.1-0.1-0.5-0.3-0.5-0.4c0-0.1,0,0,0-0.1l-0.1,0v0c0-0.1,0,0,0-0.1
				l-0.1-0.1c0-0.1,0-0.1,0-0.2c0-0.1-0.1-0.1-0.2-0.2c-0.2-0.3-0.5-0.5-0.6-0.8c-0.1-0.2-0.1-0.5-0.2-0.7c0,0-0.1-0.1-0.1-0.1
				c-0.1-0.2-0.1-0.6-0.1-0.9c-0.1-0.3-0.3-0.7-0.3-1.1C110.7,52.5,110.8,52.4,110.8,52.2z"/>
		</g>
	</g>
	<g>
		<g>
			<path class="st1" d="M11.8,7.5h-0.1v23c0,1.3,0.8,2.2,2.2,2.2H18v4H0v-4h3.8c1.7,0,2.2-0.9,2.2-2.2V6.7c0-1.4-0.5-2-2.2-2H0v-4
				h16l15.8,25.9H32V7.3c0-1.6-0.9-2.6-2.8-2.6h-3.3v-4h17.7v4h-3.2c-2,0-2.7,0.8-2.7,1.9v30.1h-8L11.8,7.5z"/>
			<path class="st1" d="M68.8,27.3v1.6c0,6.1-2.4,8.6-7,8.6c-2.7,0-5.1-1.1-5.5-4c-2,3-5.5,4-8.9,4c-4.2,0-7.6-2-7.6-6.9
				c0-10.6,16.3-5.4,16.3-13.1c0-3.5-2.9-4.1-5.8-4.1c-1.5,0-4.1,0.5-5.1,1.8c2-0.3,3.6,0.6,3.6,2.8c0,2.4-1.7,3.2-3.8,3.2
				c-2.3,0-3.9-1.8-3.9-4c0-5.5,6.6-6.7,10.9-6.7c7.3,0,10.5,3.3,10.5,7.9v13.3c0,1.2,0.5,1.8,1.3,1.8c0.8,0,1.5-0.8,1.5-4.1v-2.1
				H68.8z M56.1,23.3l-5.8,2.6c-1.6,0.7-3.3,1.6-3.3,4.1c0,2.3,1,3.4,3.3,3.4c3.7,0,5.8-3.2,5.8-6.6V23.3z"/>
			<path class="st1" d="M180.9,33.1h-2.6c-1.5,0-2.2-0.6-2.2-2.2V0.7h-11.3v3.6h2.7c1.5,0,2.2,0.6,2.2,2.2V31c0,1.6-1.7,2.2-3.2,2.2
				H166c0.4-1.2,0.6-2.6,0.6-4.2v-1.6h-3.5v2.1c0,3.4-0.7,4.1-1.5,4.1c-0.8,0-1.3-0.6-1.3-1.8V18.3c0-4.6-3.2-7.9-10.5-7.9
				c-4.3,0-10.9,1.2-10.9,6.7c0,2.2,1.6,4,3.9,4c2.1,0,3.8-0.8,3.8-3.2c0-2.2-1.6-3.1-3.6-2.8c1-1.3,3.5-1.8,5.1-1.8
				c2.9,0,5.8,0.6,5.8,4.1c0,7.7-16.3,2.6-16.3,13.1c0,4.9,3.3,6.9,7.6,6.9c3.4,0,6.9-1,8.9-4c0.4,2.9,2.8,4,5.5,4
				c1.5,0,2.7-0.3,3.7-0.8h17.6V33.1z M153.9,26.8c0,3.5-2.1,6.6-5.8,6.6c-2.2,0-3.3-1.1-3.3-3.4c0-2.6,1.7-3.4,3.3-4.1l5.8-2.6
				V26.8z"/>
			<path class="st1" d="M240.9,33c-2.6,0-3.3-0.6-3.3-2.2V19.2c0-5.9-2.9-8.8-7.7-8.8c-4.2,0-7.2,2.2-9.5,5.5h-0.1v-4.7h-11.7v3.6
				h1.8c2.8,0,3.5,0.6,3.5,2.9v13c0,1.6-0.6,2.2-2.2,2.2h-5.1c-1.9,0-2.7-1.2-2.7-3V7.3c0-2.1,1.7-2.9,3.4-2.9h2.4V0.7h-19.2v3.7h3
				c2.1,0,2.8,1.4,2.8,2.7v23.6c0,1.4-0.9,2.2-3.1,2.2h-2.7v3.7h34.1V33h-2.1c-1.5,0-2.2-0.6-2.2-2.2V21c0-3.5,3.5-6.2,6.1-6.2
				c2.6,0,4.8,0.9,4.8,4.9v11.2c0,1.6-0.6,2.2-2.9,2.2H227v3.7h15.9V33H240.9z"/>
			<path class="st1" d="M245.8,26.8c1.1,4.8,4.4,7.1,9.2,7.1c1.9,0,4.2-1,4.2-3.3c0-5.3-17.1-2.3-17.1-12c0-5.4,5.2-8.2,9.9-8.2
				c2.9,0,5.7,1.1,8,2.7l1.1-1.8h3v9.1h-3.5c-1.3-4-3.9-6-8-6c-1.8,0-4.1,0.8-4.1,2.9c0,4.2,17.1,2.2,17.1,12.2c0,5.7-4.8,8-9.9,8
				c-3.3,0-6.5-0.5-9.1-2.8l-1.1,2h-3.6v-10H245.8z"/>
			<path class="st1" d="M290.9,8.9c2.1,0,3.9-1.7,3.9-3.9c0-2.2-1.8-3.9-3.9-3.9c-2.1,0-3.9,1.7-3.9,3.9
				C287,7.1,288.8,8.9,290.9,8.9"/>
			<path class="st1" d="M331.1,33.1c-2.6,0-3.3-0.6-3.3-2.2V19.2c0-5.9-2.9-8.8-7.7-8.8c-4.2,0-7.2,2.2-9.5,5.5h-0.1v-4.7h-11.7v3.6
				h1.8c2.8,0,3.5,0.6,3.5,2.9V31c0,1.6-0.6,2.2-2.2,2.2h-3h-0.1H297c-1.5,0-2.2-0.6-2.2-2.2V11.3H282h-1.5h-5.7V1.2h-3.4
				c-0.5,5-1.9,10-7.5,10.1v3.6h4.6v16.6c0,4.4,2.9,6,7,6c4.3,0,7.4-2.5,7.4-8.2v-4.6h-3.6v4.8c0,2.2-0.6,3.1-2.3,3.1
				c-1.5,0-2.1-0.7-2.1-1.8v-16h5.5h1.5h4.2c1.5,0,2.2,0.6,2.2,2.2V31c0,1.6-0.7,2.2-2.2,2.2h-2.5v3.6h15.1h0.1h15.9v-3.6h-2.1
				c-1.5,0-2.2-0.6-2.2-2.2V21c0-3.5,3.5-6.3,6.1-6.3c2.6,0,4.8,0.9,4.8,4.9V31c0,1.6-0.7,2.2-2.9,2.2h-1.3v3.6H333v-3.6H331.1z"/>
			<path class="st1" d="M354.6,26.3c-0.5,7.3-4.3,11.3-11.7,11.3c-8.4,0-12.8-4.8-12.8-13.6c0-8,6.4-13.5,13.4-13.5
				c6.3,0,11.2,3.4,11.2,8c0,2.4-1.6,4.5-3.9,4.5c-1.9,0-4.2-1-4.2-3.3c0-2.2,1-3.4,3.2-3.5c-1.2-1.6-3-2.1-5.2-2.1
				c-5.7,0-7.2,5.3-7.2,9.5c0,4.1,1.4,9.5,7,9.5c3.3,0,5.6-2.8,5.9-6.7H354.6z"/>
			<path class="st1" d="M352.9,14.9v-3.4c5.5-0.4,7-5.3,7.5-10.3h3.4v10.1h7.2v3.6h-7v16c0,1.1,0.6,1.8,2.1,1.8
				c1.7,0,2.3-0.9,2.3-3.1v-4.8h3.6v4.6c0,5.7-3.2,8.2-7.4,8.2c-4.1,0-7-1.7-7-6V14.9H352.9z"/>
			<path class="st1" d="M141.2,4.7c-2.3-0.6-10.1-1.6-13.4,4.7c-0.6,1.1-1.1,1.9-2.7,1.9h-9.4v3.6h3c1.5,0,2.2,0.6,2.2,2.2V31
				c0,1.6-0.7,2.2-2.2,2.2h-4.1c-2.4,0-2.8-0.6-2.8-2.2V11.3h-12v3.6h2.9c1.7,0,2.7,0.7,2.7,2.2v9.2c0,2.6-2.1,7-6.7,7
				c-2.7,0-4.2-1.7-4.2-4v-18h-18V1.2h-3.4c-0.5,5-1.9,9.9-7.5,10.3v3.4h4.6v16.6c0,4.4,2.9,6,7,6c4.3,0,7.5-2.5,7.5-8.2v-4.6h-3.6
				v4.8c0,2.2-0.6,3.1-2.3,3.1c-1.5,0-2.1-0.7-2.1-1.8v-16h9.2c1.5,0,2.2,0.6,2.2,2.2v12.9c0,5.1,2.9,7.6,8,7.6c3.6,0,7-1.1,9.2-5.1
				h0.1v4.3H133v-3.6h-3.4c-1.5,0-2.2-0.6-2.2-2.2v-9.1c0-0.2,0-0.5,0-0.8l0.2-6c0,0,0.1-3.4,3.6-5.7c2.2-1.5,5.2-1.7,7-1.6v0
				c-1.5,0.1-4.4,1.4-5.8,2.5c-2,1.6-2.7,4-2.8,5.3c1.1,0.4,5.1,2.2,9.5-3.3c2.6-3.2,6-5.5,7.5-4.9c0,0,0,0,0,0
				C145.5,6.7,144.3,5.5,141.2,4.7"/>
		</g>
		<g>
			<path class="st1" d="M375.9,0c0.7,0,1.5,0.2,2.2,0.6c0.7,0.4,1.3,0.9,1.7,1.6c0.4,0.7,0.6,1.4,0.6,2.2c0,0.8-0.2,1.5-0.6,2.2
				c-0.4,0.7-0.9,1.2-1.6,1.6c-0.7,0.4-1.4,0.6-2.2,0.6c-0.8,0-1.5-0.2-2.2-0.6c-0.7-0.4-1.2-0.9-1.6-1.6c-0.4-0.7-0.6-1.4-0.6-2.2
				c0-0.8,0.2-1.5,0.6-2.2c0.4-0.7,0.9-1.3,1.7-1.6C374.4,0.2,375.2,0,375.9,0z M375.9,0.7c-0.6,0-1.2,0.2-1.8,0.5
				c-0.6,0.3-1,0.8-1.4,1.4s-0.5,1.2-0.5,1.8c0,0.6,0.2,1.2,0.5,1.8c0.3,0.6,0.8,1,1.4,1.4c0.6,0.3,1.2,0.5,1.8,0.5
				c0.6,0,1.2-0.2,1.8-0.5c0.6-0.3,1-0.8,1.4-1.4c0.3-0.6,0.5-1.2,0.5-1.8c0-0.6-0.2-1.3-0.5-1.8s-0.8-1-1.4-1.4
				C377.1,0.9,376.5,0.7,375.9,0.7z M374,6.9V2.1h1.6c0.6,0,1,0,1.2,0.1c0.2,0.1,0.4,0.2,0.6,0.5c0.1,0.2,0.2,0.5,0.2,0.7
				c0,0.3-0.1,0.7-0.4,0.9c-0.2,0.3-0.6,0.4-1,0.4c0.2,0.1,0.3,0.2,0.4,0.3c0.2,0.2,0.4,0.5,0.7,0.9l0.6,0.9H377l-0.4-0.8
				c-0.3-0.6-0.6-1-0.8-1.1c-0.1-0.1-0.3-0.2-0.6-0.2h-0.5v2H374z M374.7,4.2h0.9c0.4,0,0.7-0.1,0.9-0.2c0.2-0.1,0.2-0.3,0.2-0.5
				c0-0.1,0-0.3-0.1-0.4c-0.1-0.1-0.2-0.2-0.3-0.2c-0.1-0.1-0.4-0.1-0.8-0.1h-0.9V4.2z"/>
		</g>
	</g>
</g>
</svg>
